<svg width="24" height="24" viewBox="0 0 24 24" fill="none" xmlns="http://www.w3.org/2000/svg">
<path d="M20 14.25C21.2426 14.25 22.25 13.2426 22.25 12C22.25 10.7574 21.2426 9.75 20 9.75C18.7574 9.75 17.75 10.7574 17.75 12C17.75 13.2426 18.7574 14.25 20 14.25Z" fill="#292D32"/>
<path d="M20 6.5C21.2426 6.5 22.25 5.49264 22.25 4.25C22.25 3.00736 21.2426 2 20 2C18.7574 2 17.75 3.00736 17.75 4.25C17.75 5.49264 18.7574 6.5 20 6.5Z" fill="#292D32"/>
<path d="M20 22.25C21.2426 22.25 22.25 21.2426 22.25 20C22.25 18.7574 21.2426 17.75 20 17.75C18.7574 17.75 17.75 18.7574 17.75 20C17.75 21.2426 18.7574 22.25 20 22.25Z" fill="#292D32"/>
<path d="M4 14.25C5.24264 14.25 6.25 13.2426 6.25 12C6.25 10.7574 5.24264 9.75 4 9.75C2.75736 9.75 1.75 10.7574 1.75 12C1.75 13.2426 2.75736 14.25 4 14.25Z" fill="#292D32"/>
<path d="M4 6.5C5.24264 6.5 6.25 5.49264 6.25 4.25C6.25 3.00736 5.24264 2 4 2C2.75736 2 1.75 3.00736 1.75 4.25C1.75 5.49264 2.75736 6.5 4 6.5Z" fill="#292D32"/>
<path d="M4 22.25C5.24264 22.25 6.25 21.2426 6.25 20C6.25 18.7574 5.24264 17.75 4 17.75C2.75736 17.75 1.75 18.7574 1.75 20C1.75 21.2426 2.75736 22.25 4 22.25Z" fill="#292D32"/>
<path opacity="0.4" fill-rule="evenodd" clip-rule="evenodd" d="M20 12.25C20 12.66 19.7495 13 19.4474 13H14.1053V17.25C14.1053 18.83 14.5989 19.5 15.7632 19.5H19.4474C19.7495 19.5 20 19.84 20 20.25C20 20.66 19.7495 21 19.4474 21H15.7632C13.98 21 13 19.67 13 17.25V13V11.5V7.25C13 4.83 13.98 3.5 15.7632 3.5H19.4474C19.7495 3.5 20 3.84 20 4.25C20 4.66 19.7495 5 19.4474 5H15.7632C14.5989 5 14.1053 5.67 14.1053 7.25V11.5H19.4474C19.7495 11.5 20 11.84 20 12.25Z" fill="#292D32"/>
<path opacity="0.4" fill-rule="evenodd" clip-rule="evenodd" d="M4 12.25C4 12.66 4.25053 13 4.55263 13H9.89474V17.25C9.89474 18.83 9.40105 19.5 8.23684 19.5H4.55263C4.25053 19.5 4 19.84 4 20.25C4 20.66 4.25053 21 4.55263 21H8.23684C10.02 21 11 19.67 11 17.25V13V11.5V7.25C11 4.83 10.02 3.5 8.23684 3.5H4.55263C4.25053 3.5 4 3.84 4 4.25C4 4.66 4.25053 5 4.55263 5H8.23684C9.40105 5 9.89474 5.67 9.89474 7.25V11.5H4.55263C4.25053 11.5 4 11.84 4 12.25Z" fill="#292D32"/>
<path opacity="0.4" d="M13 13.05H11V11.5H13V13.05Z" fill="#292D32"/>
</svg>
