<svg width="24" height="24" viewBox="0 0 24 24" fill="none" xmlns="http://www.w3.org/2000/svg">
<path opacity="0.4" d="M19 12.75C19.41 12.75 19.75 12.41 19.75 12C19.75 11.59 19.41 11.25 19 11.25H11.75H10.25H5C4.59 11.25 4.25 11.59 4.25 12C4.25 12.41 4.59 12.75 5 12.75H10.25H11.75H19Z" fill="#292D32"/>
<path d="M20 14.25C21.2426 14.25 22.25 13.2426 22.25 12C22.25 10.7574 21.2426 9.75 20 9.75C18.7574 9.75 17.75 10.7574 17.75 12C17.75 13.2426 18.7574 14.25 20 14.25Z" fill="#292D32"/>
<path d="M4 14.25C5.24264 14.25 6.25 13.2426 6.25 12C6.25 10.7574 5.24264 9.75 4 9.75C2.75736 9.75 1.75 10.7574 1.75 12C1.75 13.2426 2.75736 14.25 4 14.25Z" fill="#292D32"/>
</svg>
